<svg width="24" height="25" viewBox="0 0 24 25" fill="none" xmlns="http://www.w3.org/2000/svg">
<path fill-rule="evenodd" clip-rule="evenodd" d="M5.00379 6.12216C5.48331 5.84815 6.09416 6.01475 6.36817 6.49427L7.98743 9.32796C9.21564 8.78933 10.5729 8.49042 11.9999 8.49042C13.427 8.49042 14.7843 8.78936 16.0125 9.32804L17.6318 6.49427C17.9058 6.01475 18.5167 5.84815 18.9962 6.12216C19.4757 6.39617 19.6423 7.00703 19.3683 7.48654L17.7543 10.311C20.0664 11.9406 21.6566 14.5256 21.9507 17.4918C22.0051 18.0414 21.5522 18.4904 20.9999 18.4904H2.99989C2.44761 18.4904 1.99464 18.0414 2.04913 17.4918C2.34322 14.5255 3.93349 11.9404 6.24559 10.3109L4.63168 7.48654C4.35767 7.00703 4.52427 6.39617 5.00379 6.12216ZM8 15.4904C7.44772 15.4904 7 15.0427 7 14.4904C7 13.9381 7.44772 13.4904 8 13.4904C8.55228 13.4904 9 13.9381 9 14.4904C9 15.0427 8.55228 15.4904 8 15.4904ZM15 14.4904C15 15.0427 15.4477 15.4904 16 15.4904C16.5523 15.4904 17 15.0427 17 14.4904C17 13.9381 16.5523 13.4904 16 13.4904C15.4477 13.4904 15 13.9381 15 14.4904Z" fill="#FCFCFC"/>
</svg>
