<svg width="25" height="25" viewBox="0 0 25 25" fill="none" xmlns="http://www.w3.org/2000/svg">
<path d="M18.1007 13.1158C18.1189 15.0696 19.22 16.1819 20.0062 16.7284C20.4243 17.019 20.6748 17.5318 20.48 18.0022C20.2585 18.5369 19.9081 19.2658 19.4009 20.007C18.5673 21.2254 17.7022 22.4392 16.3393 22.4644C15.0001 22.4891 14.5695 21.6703 13.0385 21.6703C11.5079 21.6703 11.0294 22.4393 9.76177 22.4891C8.44625 22.5389 7.44445 21.1716 6.60397 19.9577C4.88647 17.4747 3.57394 12.9412 5.33633 9.88102C6.21185 8.36133 7.77647 7.399 9.47472 7.37432C10.7665 7.34968 11.9858 8.24341 12.7755 8.24341C13.5648 8.24341 15.0465 7.16862 16.6042 7.32647C17.1396 7.34875 18.4693 7.512 19.5786 8.5219C19.9999 8.90542 19.8498 9.55722 19.4435 9.95658C18.8256 10.564 18.0872 11.606 18.1007 13.1158ZM15.5839 5.68371C16.0963 5.06353 16.4857 4.26496 16.6063 3.42119C16.6806 2.90091 16.2098 2.50177 15.7105 2.66591C14.9518 2.91535 14.1903 3.40679 13.678 4.00621C13.1822 4.57941 12.7337 5.41633 12.6197 6.29255C12.5588 6.76068 12.9602 7.14094 13.4217 7.0417C14.263 6.8608 15.0529 6.32685 15.5839 5.68371Z" fill="#FCFCFC"/>
</svg>
